<svg width="35" height="34" viewBox="0 0 35 34" version="1.1" xmlns="http://www.w3.org/2000/svg" xmlns:xlink="http://www.w3.org/1999/xlink">
<title>googleplus</title>
<desc>Created using Figma</desc>
<g id="Canvas" transform="translate(690 -4142)">
<g id="googleplus">
<g id="Oval">
<mask id="mask0_outline_ins">
<use xlink:href="#path0_fill" fill="white" transform="translate(-689.692 4142)"/>
</mask>
<g mask="url(#mask0_outline_ins)">
<use xlink:href="#path1_stroke_2x" transform="translate(-689.692 4142)" fill="#FFFFFF"/>
</g>
</g>
<g id="Shape">
<use xlink:href="#path2_fill" transform="translate(-681.182 4151.27)" fill="#FFFFFF"/>
</g>
</g>
</g>
<defs>
<path id="path0_fill" fill-rule="evenodd" d="M 17.0376 34C 26.4472 34 34.0752 26.3888 34.0752 17C 34.0752 7.61116 26.4472 0 17.0376 0C 7.62799 0 0 7.61116 0 17C 0 26.3888 7.62799 34 17.0376 34Z"/>
<path id="path1_stroke_2x" d="M 17.0376 36C 27.5476 36 36.0752 27.4976 36.0752 17L 32.0752 17C 32.0752 25.2801 25.3468 32 17.0376 32L 17.0376 36ZM 36.0752 17C 36.0752 6.50243 27.5476 -2 17.0376 -2L 17.0376 2C 25.3468 2 32.0752 8.71989 32.0752 17L 36.0752 17ZM 17.0376 -2C 6.52759 -2 -2 6.50243 -2 17L 2 17C 2 8.71989 8.72839 2 17.0376 2L 17.0376 -2ZM -2 17C -2 27.4976 6.52759 36 17.0376 36L 17.0376 32C 8.72839 32 2 25.2801 2 17L -2 17Z"/>
<path id="path2_fill" fill-rule="evenodd" d="M 5.59537 16.8941C 3.49257 16.8941 1.97498 15.5565 1.97498 13.9504C 1.97498 12.3757 3.85846 11.0642 5.96022 11.0872C 6.4498 11.0935 6.90716 11.1719 7.3219 11.3067C 8.46217 12.105 9.28126 12.5554 9.51201 13.4645C 9.55567 13.6495 9.57958 13.8376 9.57958 14.0319C 9.57958 15.6391 8.54949 16.8941 5.59537 16.8941ZM 6.14728 7.47276C 4.73675 7.42992 3.39586 5.88651 3.15263 4.02438C 2.9094 2.16226 3.8553 0.73693 5.26583 0.778728C 6.67532 0.821572 8.01725 2.31482 8.26048 4.17799C 8.50371 6.04012 7.55781 7.5156 6.14728 7.47276ZM 9.07126 10.2302C 8.57649 9.87803 7.63163 9.02221 7.63163 8.51854C 7.63163 7.92709 7.79898 7.63763 8.68147 6.94378C 9.58683 6.23216 10.2282 5.23213 10.2282 4.07013C 10.2282 2.68451 9.61489 1.33546 8.46319 0.890308L 10.1991 0.890308L 11.4246 0L 5.94876 0C 3.49566 0 1.18497 1.86944 1.18497 4.0346C 1.18497 6.24783 2.85848 8.03367 5.35524 8.03367C 5.52986 8.03367 5.69722 8.03054 5.86249 8.018C 5.70137 8.3294 5.58392 8.68155 5.58392 9.0452C 5.58392 9.66068 5.91342 10.1602 6.33024 10.5667C 6.01529 10.5667 5.71073 10.5761 5.38122 10.5761C 2.34084 10.5761 0 12.5218 0 14.5417C 0 16.5292 2.5664 17.7727 5.60574 17.7727C 9.07126 17.7727 10.987 15.7957 10.987 13.8071C 10.987 12.2135 10.5182 11.2584 9.07126 10.2302ZM 17.0376 7.63436L 14.9068 7.63436L 14.9068 5.49219L 13.1906 5.49219L 13.1906 7.63436L 11.0598 7.63436L 11.0598 9.35959L 13.1906 9.35959L 13.1906 11.5018L 14.9068 11.5018L 14.9068 9.35959L 17.0376 9.35959L 17.0376 7.63436Z"/>
</defs>
</svg>
