<svg width="35" height="34" viewBox="0 0 35 34" version="1.1" xmlns="http://www.w3.org/2000/svg" xmlns:xlink="http://www.w3.org/1999/xlink">
<title>linkedin</title>
<desc>Created using Figma</desc>
<g id="Canvas" transform="translate(633 -4142)">
<g id="linkedin">
<g id="Oval">
<mask id="mask0_outline_ins">
<use xlink:href="#path0_fill" fill="white" transform="translate(-632.383 4142)"/>
</mask>
<g mask="url(#mask0_outline_ins)">
<use xlink:href="#path1_stroke_2x" transform="translate(-632.383 4142)" fill="#FFFFFF"/>
</g>
</g>
<g id="Shape">
<use xlink:href="#path2_fill" transform="translate(-623.09 4151.27)" fill="#FFFFFF"/>
</g>
</g>
</g>
<defs>
<path id="path0_fill" fill-rule="evenodd" d="M 17.0376 34C 26.4472 34 34.0752 26.3888 34.0752 17C 34.0752 7.61116 26.4472 0 17.0376 0C 7.62799 0 0 7.61116 0 17C 0 26.3888 7.62799 34 17.0376 34Z"/>
<path id="path1_stroke_2x" d="M 17.0376 36C 27.5476 36 36.0752 27.4976 36.0752 17L 32.0752 17C 32.0752 25.2801 25.3468 32 17.0376 32L 17.0376 36ZM 36.0752 17C 36.0752 6.50243 27.5476 -2 17.0376 -2L 17.0376 2C 25.3468 2 32.0752 8.71989 32.0752 17L 36.0752 17ZM 17.0376 -2C 6.52759 -2 -2 6.50243 -2 17L 2 17C 2 8.71989 8.72839 2 17.0376 2L 17.0376 -2ZM -2 17C -2 27.4976 6.52759 36 17.0376 36L 17.0376 32C 8.72839 32 2 25.2801 2 17L -2 17Z"/>
<path id="path2_fill" fill-rule="evenodd" d="M 0.390686 4.95557L 3.40957 4.95557L 3.40957 15.4535L 0.390686 15.4535L 0.390686 4.95557ZM 1.82317 3.64248L 1.80131 3.64248C 0.708503 3.64248 0 2.83996 0 1.82371C 0 0.78668 0.729449 0 1.84411 0C 2.95786 0 3.64269 0.784701 3.66455 1.82074C 3.66455 2.83699 2.95787 3.64248 1.82317 3.64248ZM 15.4887 15.4544L 12.0655 15.4544L 12.0655 10.0209C 12.0655 8.59889 11.53 7.62915 10.3525 7.62915C 9.45186 7.62915 8.95099 8.28323 8.71786 8.91554C 8.63043 9.14115 8.64409 9.45682 8.64409 9.77347L 8.64409 15.4544L 5.25275 15.4544C 5.25275 15.4544 5.29646 5.83017 5.25275 4.95542L 8.64409 4.95542L 8.64409 6.603C 8.84444 5.88262 9.92814 4.85449 11.6575 4.85449C 13.8031 4.85449 15.4887 6.36551 15.4887 9.61613L 15.4887 15.4544Z"/>
</defs>
</svg>
