<svg width="35" height="34" viewBox="0 0 35 34" version="1.1" xmlns="http://www.w3.org/2000/svg" xmlns:xlink="http://www.w3.org/1999/xlink">
<title>skype</title>
<desc>Created using Figma</desc>
<g id="Canvas" transform="translate(576 -4142)">
<g id="skype">
<g id="Oval">
<mask id="mask0_outline_ins">
<use xlink:href="#path0_fill" fill="white" transform="translate(-575.075 4142)"/>
</mask>
<g mask="url(#mask0_outline_ins)">
<use xlink:href="#path1_stroke_2x" transform="translate(-575.075 4142)" fill="#FFFFFF"/>
</g>
</g>
<g id="Shape">
<use xlink:href="#path2_fill" transform="translate(-567.331 4149.73)" fill="#FFFFFF"/>
</g>
</g>
</g>
<defs>
<path id="path0_fill" fill-rule="evenodd" d="M 17.0376 34C 26.4472 34 34.0752 26.3888 34.0752 17C 34.0752 7.61116 26.4472 0 17.0376 0C 7.62799 0 0 7.61116 0 17C 0 26.3888 7.62799 34 17.0376 34Z"/>
<path id="path1_stroke_2x" d="M 17.0376 36C 27.5476 36 36.0752 27.4976 36.0752 17L 32.0752 17C 32.0752 25.2801 25.3468 32 17.0376 32L 17.0376 36ZM 36.0752 17C 36.0752 6.50243 27.5476 -2 17.0376 -2L 17.0376 2C 25.3468 2 32.0752 8.71989 32.0752 17L 36.0752 17ZM 17.0376 -2C 6.52759 -2 -2 6.50243 -2 17L 2 17C 2 8.71989 8.72839 2 17.0376 2L 17.0376 -2ZM -2 17C -2 27.4976 6.52759 36 17.0376 36L 17.0376 32C 8.72839 32 2 25.2801 2 17L -2 17Z"/>
<path id="path2_fill" fill-rule="evenodd" d="M 18.0521 11.2412C 18.1865 10.637 18.2564 10.0124 18.2564 9.36949C 18.2564 4.55412 14.2885 0.64936 9.39268 0.64936C 8.87578 0.64936 8.36981 0.693439 7.87586 0.776221C 7.08467 0.285976 6.14704 0 5.14166 0C 2.30145 0 0 2.26416 0 5.05834C 0 5.99153 0.258995 6.86558 0.707046 7.616C 0.589023 8.18258 0.527826 8.76958 0.527826 9.36949C 0.527826 14.187 4.49581 18.0907 9.39268 18.0907C 9.94673 18.0907 10.4899 18.0412 11.0155 17.9455C 11.74 18.3283 12.5673 18.5455 13.4459 18.5455C 16.285 18.5455 18.5865 16.2813 18.5865 13.4871C 18.5865 12.6808 18.3941 11.9185 18.0521 11.2412ZM 13.8688 13.5127C 13.4601 14.0836 12.8536 14.5362 12.0679 14.8577C 11.2909 15.1748 10.3587 15.3361 9.29869 15.3361C 8.02447 15.3361 6.95789 15.1157 6.12408 14.6814C 5.5285 14.3653 5.03783 13.9374 4.66409 13.4063C 4.28817 12.873 4.09692 12.343 4.09692 11.8313C 4.09692 11.512 4.2215 11.2357 4.46629 11.0088C 4.70999 10.7831 5.02035 10.6702 5.3919 10.6702C 5.69679 10.6702 5.96016 10.7594 6.17326 10.9357C 6.37652 11.1067 6.55137 11.3593 6.69343 11.684C 6.84971 12.0388 7.02128 12.3366 7.20159 12.5709C 7.37535 12.7989 7.62669 12.9892 7.9447 13.1375C 8.26598 13.287 8.69983 13.3633 9.23312 13.3633C 9.9653 13.3633 10.5663 13.2096 11.0188 12.9053C 11.4603 12.6096 11.6744 12.2527 11.6744 11.8173C 11.6744 11.4733 11.563 11.2034 11.3324 10.9895C 11.0909 10.768 10.7729 10.596 10.386 10.4767C 9.98388 10.3541 9.43638 10.2197 8.75993 10.0799C 7.83979 9.88642 7.05843 9.65635 6.43662 9.39725C 5.80061 9.13063 5.28808 8.76079 4.91325 8.29958C 4.53295 7.83083 4.34062 7.24383 4.34062 6.55147C 4.34062 5.89351 4.54279 5.29898 4.94166 4.78723C 5.33835 4.27871 5.91754 3.88307 6.66284 3.61322C 7.39939 3.34552 8.27363 3.20898 9.26372 3.20898C 10.056 3.20898 10.751 3.30037 11.3324 3.47668C 11.9171 3.65515 12.4088 3.89705 12.7968 4.19485C 13.1858 4.4948 13.4776 4.81411 13.659 5.14739C 13.8426 5.48389 13.9355 5.81825 13.9355 6.14293C 13.9355 6.45471 13.8142 6.73746 13.5716 6.98473C 13.329 7.23308 13.023 7.35887 12.6613 7.35887C 12.3334 7.35887 12.0766 7.27931 11.8985 7.12557C 11.7324 6.97936 11.5608 6.75466 11.3696 6.43106C 11.1488 6.01822 10.8811 5.69246 10.574 5.46347C 10.2757 5.23985 9.77734 5.12696 9.09324 5.12696C 8.45832 5.12696 7.94142 5.25275 7.55675 5.50002C 7.18738 5.73869 7.00816 6.01177 7.00816 6.33645C 7.00816 6.53534 7.06608 6.70091 7.1852 6.84282C 7.31087 6.99656 7.489 7.12772 7.71302 7.23845C 7.94579 7.35457 8.1873 7.44595 8.42663 7.51045C 8.67251 7.57819 9.08668 7.6771 9.65276 7.80611C 10.3707 7.95877 11.0308 8.12756 11.6133 8.3114C 12.2034 8.49847 12.7137 8.72532 13.1301 8.99302C 13.5541 9.26502 13.8907 9.61335 14.1289 10.0305C 14.3682 10.4498 14.4895 10.9669 14.4895 11.5679C 14.4895 12.285 14.2808 12.9408 13.8688 13.5127Z"/>
</defs>
</svg>
