<svg width="41" height="44" viewBox="0 0 41 44" version="1.1" xmlns="http://www.w3.org/2000/svg" xmlns:xlink="http://www.w3.org/1999/xlink">
<title>Icon</title>
<desc>Created using Figma</desc>
<g id="Canvas" transform="translate(1080 -679)">
<g id="Icon">
<g id="Stroke 13">
<use xlink:href="#path0_stroke" transform="translate(-1079 702)" fill="#EEDC22"/>
</g>
<g id="Stroke 15">
<use xlink:href="#path1_stroke" transform="translate(-1069.98 680.009)" fill="#EEDC22"/>
</g>
<g id="Stroke 17">
<use xlink:href="#path2_stroke" transform="translate(-1079 714)" fill="#EEDC22"/>
</g>
</g>
</g>
<defs>
<path id="path0_stroke" d="M 38.5 12C 38.5 12.2761 38.7239 12.5 39 12.5C 39.2761 12.5 39.5 12.2761 39.5 12L 38.5 12ZM -0.5 12C -0.5 12.2761 -0.276142 12.5 0 12.5C 0.276142 12.5 0.5 12.2761 0.5 12L -0.5 12ZM 39.5 12C 39.5 8.44811 37.1623 5.3116 33.5508 3.08905C 29.9311 0.861522 24.9622 -0.5 19.5 -0.5L 19.5 0.5C 24.8076 0.5 29.5887 1.82498 33.0266 3.9407C 36.4727 6.0614 38.5 8.92489 38.5 12L 39.5 12ZM 19.5 -0.5C 14.0378 -0.5 9.06886 0.861522 5.44925 3.08905C 1.83774 5.3116 -0.5 8.44811 -0.5 12L 0.5 12C 0.5 8.92489 2.52734 6.0614 5.97336 3.9407C 9.41129 1.82498 14.1924 0.5 19.5 0.5L 19.5 -0.5Z"/>
<path id="path1_stroke" d="M 10.7317 22.5C 16.9462 22.5 21.9634 17.3394 21.9634 11L 20.9634 11C 20.9634 16.8106 16.3708 21.5 10.7317 21.5L 10.7317 22.5ZM 21.9634 11C 21.9634 4.66057 16.9462 -0.5 10.7317 -0.5L 10.7317 0.5C 16.3708 0.5 20.9634 5.18943 20.9634 11L 21.9634 11ZM 10.7317 -0.5C 4.51717 -0.5 -0.5 4.66057 -0.5 11L 0.5 11C 0.5 5.18943 5.09259 0.5 10.7317 0.5L 10.7317 -0.5ZM -0.5 11C -0.5 17.3394 4.51717 22.5 10.7317 22.5L 10.7317 21.5C 5.09259 21.5 0.5 16.8106 0.5 11L -0.5 11Z"/>
<path id="path2_stroke" d="M 39.5 0C 39.5 -0.276142 39.2761 -0.5 39 -0.5C 38.7239 -0.5 38.5 -0.276142 38.5 0L 39.5 0ZM 0.5 0C 0.5 -0.276142 0.276142 -0.5 0 -0.5C -0.276142 -0.5 -0.5 -0.276142 -0.5 0L 0.5 0ZM 38.5 0L 38.5 6.565L 39.5 6.565L 39.5 0L 38.5 0ZM 38.5 6.565C 38.5011 6.82443 38.4689 7.08582 38.3709 7.30962C 38.3282 7.41607 38.3113 7.44942 38.2616 7.48807C 38.2261 7.52863 38.2771 7.51109 38.2405 7.5L 38.2405 8.5C 38.831 8.5 39.148 8.04386 39.2937 7.69488C 39.434 7.34768 39.4989 6.89157 39.5 6.565L 38.5 6.565ZM 38.2405 7.5L 1.24703 7.5L 1.24703 8.5L 38.2405 8.5L 38.2405 7.5ZM 1.24703 7.5C 1.19614 7.5 1.01186 7.42973 0.79739 7.17649C 0.592837 6.93496 0.5 6.6878 0.5 6.565L -0.5 6.565C -0.5 7.0212 -0.246224 7.49154 0.034285 7.82276C 0.304876 8.14227 0.744112 8.5 1.24703 8.5L 1.24703 7.5ZM 0.5 6.565L 0.5 0L -0.5 0L -0.5 6.565L 0.5 6.565Z"/>
</defs>
</svg>
