<svg width="42" height="44" viewBox="0 0 42 44" version="1.1" xmlns="http://www.w3.org/2000/svg" xmlns:xlink="http://www.w3.org/1999/xlink">
<title>Icon</title>
<desc>Created using Figma</desc>
<g id="Canvas" transform="translate(749 -679)">
<g id="Icon">
<g id="Stroke 146">
<use xlink:href="#path0_stroke" transform="translate(-734.003 694.722)" fill="#EEDC22"/>
</g>
<g id="Stroke 148">
<use xlink:href="#path1_stroke" transform="translate(-747.854 680)" fill="#EEDC22"/>
</g>
</g>
</g>
<defs>
<path id="path0_stroke" d="M 11.5 6C 11.5 9.03786 9.03786 11.5 6 11.5L 6 12.5C 9.59014 12.5 12.5 9.59014 12.5 6L 11.5 6ZM 6 11.5C 2.96214 11.5 0.5 9.03786 0.5 6L -0.5 6C -0.5 9.59014 2.40986 12.5 6 12.5L 6 11.5ZM 0.5 6C 0.5 2.96214 2.96214 0.5 6 0.5L 6 -0.5C 2.40986 -0.5 -0.5 2.40986 -0.5 6L 0.5 6ZM 6 0.5C 9.03786 0.5 11.5 2.96214 11.5 6L 12.5 6C 12.5 2.40986 9.59014 -0.5 6 -0.5L 6 0.5Z"/>
<path id="path1_stroke" d="M 36.202 14.908L 35.912 14.5007C 35.7336 14.6278 35.6586 14.8563 35.7271 15.0643L 36.202 14.908ZM 39.288 12.71L 38.9983 12.3025L 38.998 12.3027L 39.288 12.71ZM 39.522 11.315L 39.1148 11.6051L 39.115 11.6054L 39.522 11.315ZM 34.881 4.799L 35.2883 4.50893L 35.2878 4.50821L 34.881 4.799ZM 33.486 4.565L 33.7698 4.97676L 33.7758 4.97248L 33.486 4.565ZM 30.305 6.757L 30 7.15316C 30.1721 7.28565 30.4099 7.29193 30.5888 7.16872L 30.305 6.757ZM 24.854 3.973L 24.354 3.973C 24.354 4.19355 24.4986 4.38805 24.7097 4.45171L 24.854 3.973ZM 16.062 1.60982e-15L 16.062 -0.5C 15.9456 -0.5 15.8329 -0.459384 15.7432 -0.385154L 16.062 1.60982e-15ZM 14.854 1L 14.5352 0.614846C 14.4205 0.709834 14.354 0.851039 14.354 1L 14.854 1ZM 14.854 3.973L 15.0027 4.45038C 15.2117 4.38529 15.354 4.19186 15.354 3.973L 14.854 3.973ZM 9.44604 6.879L 9.15655 7.28667C 9.33745 7.41513 9.58138 7.40901 9.75562 7.27164L 9.44604 6.879ZM 6.11704 4.515L 6.40654 4.10733L 6.40414 4.10564L 6.11704 4.515ZM 4.75104 4.761L 5.16111 5.04708L 5.16113 5.04706L 4.75104 4.761ZM 0.178044 11.316L -0.232027 11.0299L -0.232039 11.0299L 0.178044 11.316ZM 0.431044 12.709L 0.143948 13.1184L 0.144683 13.1189L 0.431044 12.709ZM 3.84904 15.097L 4.32575 15.2478C 4.3917 15.0394 4.31461 14.8123 4.13541 14.6871L 3.84904 15.097ZM 3.94604 25.608L 4.23613 26.0152C 4.41522 25.8877 4.48995 25.6581 4.42027 25.4496L 3.94604 25.608ZM 0.835044 27.824L 0.544958 27.4168L 0.544682 27.417L 0.835044 27.824ZM 0.601044 29.219L 1.00827 28.9289L 1.00809 28.9286L 0.601044 29.219ZM 5.24304 35.735L 4.83581 36.0251L 4.83587 36.0252L 5.24304 35.735ZM 6.63704 35.969L 6.92685 36.3765L 6.93366 36.3715L 6.63704 35.969ZM 9.67004 33.734L 9.97331 33.3365C 9.79667 33.2017 9.55229 33.1997 9.37343 33.3315L 9.67004 33.734ZM 14.854 36.473L 15.354 36.473C 15.354 36.2518 15.2087 36.0568 14.9966 35.9938L 14.854 36.473ZM 24.854 36.473L 24.7095 35.9944C 24.4984 36.0581 24.354 36.2525 24.354 36.473L 24.854 36.473ZM 30.317 33.681L 30.6002 33.2689C 30.4214 33.146 30.1837 33.1525 30.0119 33.2849L 30.317 33.681ZM 33.235 35.686L 33.5217 35.2763L 33.5182 35.2739L 33.235 35.686ZM 34.654 35.44L 34.2447 35.1529L 34.2444 35.1533L 34.654 35.44ZM 39.252 28.884L 39.6614 29.1711L 39.6614 29.1711L 39.252 28.884ZM 39.012 27.492L 38.725 27.9014L 38.726 27.9021L 39.012 27.492ZM 36.6821 25.6809C 37.2402 23.9758 37.5602 22.1187 37.562 20.223L 36.562 20.223C 36.5639 22.0333 36.2699 23.7342 35.732 25.3691L 36.6821 25.6809ZM 37.562 20.223C 37.5602 18.3222 37.2381 16.4608 36.677 14.7517L 35.7271 15.0643C 36.268 16.7032 36.5639 18.4078 36.562 20.223L 37.562 20.223ZM 36.4921 15.3153L 39.5781 13.1173L 38.998 12.3027L 35.912 14.5007L 36.4921 15.3153ZM 39.5778 13.1175C 40.2533 12.6371 40.4105 11.6995 39.9291 11.0246L 39.115 11.6054C 39.2756 11.8305 39.2228 12.1429 38.9983 12.3025L 39.5778 13.1175ZM 39.9293 11.0249L 35.2883 4.50893L 34.4738 5.08907L 39.1148 11.6051L 39.9293 11.0249ZM 35.2878 4.50821C 34.8067 3.83525 33.8712 3.67758 33.1963 4.15752L 33.7758 4.97248C 34.0009 4.81242 34.3134 4.86475 34.4743 5.08979L 35.2878 4.50821ZM 33.2023 4.15329L 30.0213 6.34528L 30.5888 7.16872L 33.7698 4.97672L 33.2023 4.15329ZM 30.6101 6.36084C 28.986 5.11289 27.0414 4.11241 24.9984 3.49429L 24.7097 4.45171C 26.6667 5.03959 28.4501 5.95711 30 7.15316L 30.6101 6.36084ZM 25.354 3.973L 25.354 1L 24.354 1L 24.354 3.973L 25.354 3.973ZM 25.354 1C 25.3536 0.730048 25.3335 0.488362 25.2961 0.313823C 25.2531 0.119599 25.1734 -0.0786538 25.013 -0.234077C 24.8693 -0.359154 24.6473 -0.45195 24.4958 -0.478396C 24.3572 -0.498503 24.2 -0.5 24.062 -0.5L 24.062 0.5C 24.2 0.5 24.2799 0.498503 24.3416 0.509646C 24.3828 0.516083 24.353 0.518828 24.3171 0.484077C 24.2857 0.453654 24.3005 0.442901 24.3197 0.529927C 24.3393 0.618486 24.354 0.764108 24.354 1L 25.354 1ZM 24.062 -0.5L 16.062 -0.5L 16.062 0.5L 24.062 0.5L 24.062 -0.5ZM 15.7432 -0.385154L 14.5352 0.614846L 15.1729 1.38515L 16.3809 0.385154L 15.7432 -0.385154ZM 14.354 1L 14.354 3.973L 15.354 3.973L 15.354 1L 14.354 1ZM 14.7053 3.49562C 12.6562 4.13682 10.794 5.18145 9.13647 6.48636L 9.75562 7.27164C 11.3501 6.01255 13.0519 5.05518 15.0027 4.45038L 14.7053 3.49562ZM 9.73554 6.47133L 6.40654 4.10733L 5.82755 4.92267L 9.15655 7.28667L 9.73554 6.47133ZM 6.40414 4.10564C 5.72236 3.62749 4.81292 3.79837 4.34096 4.47494L 5.16113 5.04706C 5.32117 4.81763 5.60773 4.76851 5.82995 4.92436L 6.40414 4.10564ZM 4.34097 4.47492L -0.232027 11.0299L 0.588115 11.6021L 5.16111 5.04708L 4.34097 4.47492ZM -0.232039 11.0299C -0.709219 11.714 -0.528729 12.6466 0.143948 13.1184L 0.71814 12.2996C 0.486817 12.1374 0.433307 11.824 0.588127 11.6021L -0.232039 11.0299ZM 0.144683 13.1189L 3.56268 15.5069L 4.13541 14.6871L 0.717405 12.2991L 0.144683 13.1189ZM 3.37234 14.9462C 2.85056 16.5995 2.56164 18.3961 2.56004 20.223L 3.56004 20.223C 3.55845 18.4759 3.82353 16.8305 4.32575 15.2478L 3.37234 14.9462ZM 2.56004 20.223C 2.56196 22.1508 2.89545 24.0372 3.47181 25.7664L 4.42027 25.4496C 3.86464 23.7908 3.55813 22.0632 3.56004 20.223L 2.56004 20.223ZM 3.65596 25.2008L 0.544958 27.4168L 1.12513 28.2312L 4.23613 26.0152L 3.65596 25.2008ZM 0.544682 27.417C -0.129685 27.898 -0.287683 28.8341 0.193994 29.5094L 1.00809 28.9286C 0.847771 28.7039 0.899774 28.392 1.12541 28.231L 0.544682 27.417ZM 0.193814 29.5091L 4.83581 36.0251L 5.65027 35.4449L 1.00827 28.9289L 0.193814 29.5091ZM 4.83587 36.0252C 5.31618 36.6991 6.25215 36.8562 6.92681 36.3765L 6.34728 35.5615C 6.12193 35.7218 5.80991 35.6689 5.65022 35.4448L 4.83587 36.0252ZM 6.93366 36.3715L 9.96666 34.1365L 9.37343 33.3315L 6.34043 35.5665L 6.93366 36.3715ZM 9.36678 34.1315C 10.9645 35.3492 12.6549 36.3366 14.7115 36.9522L 14.9966 35.9938C 13.0532 35.4194 11.5216 34.5188 9.97331 33.3365L 9.36678 34.1315ZM 14.354 36.473L 14.354 40.311L 15.354 40.311L 15.354 36.473L 14.354 36.473ZM 14.354 40.311C 14.354 40.7289 14.5773 41.2495 14.8332 41.6377C 14.9662 41.8379 15.1484 42.0532 15.3211 42.1989C 15.5012 42.3479 15.7568 42.5 16.062 42.5L 16.062 41.5C 16.0871 41.487 16.0507 41.5091 15.9588 41.4286C 15.8532 41.3438 15.768 41.2403 15.6681 41.0873C 15.4583 40.769 15.354 40.4451 15.354 40.311L 14.354 40.311ZM 16.062 42.5L 24.062 42.5L 24.062 41.5L 16.062 41.5L 16.062 42.5ZM 24.062 42.5C 24.3913 42.5 24.6365 42.3254 24.7961 42.1417C 24.933 41.9786 25.0587 41.7394 25.1347 41.534C 25.279 41.1308 25.3528 40.6223 25.354 40.311L 24.354 40.311C 24.3553 40.5517 24.3091 40.8877 24.1954 41.191C 24.1424 41.3389 24.1046 41.4184 24.0413 41.4858C 24.0006 41.5325 24.0088 41.5 24.062 41.5L 24.062 42.5ZM 25.354 40.311L 25.354 36.473L 24.354 36.473L 24.354 40.311L 25.354 40.311ZM 24.9986 36.9516C 27.0414 36.3326 28.994 35.3291 30.6222 34.0771L 30.0119 33.2849C 28.4581 34.4849 26.6667 35.4054 24.7095 35.9944L 24.9986 36.9516ZM 30.0339 34.0931L 32.9519 36.0981L 33.5182 35.2739L 30.6002 33.2689L 30.0339 34.0931ZM 32.9484 36.0957C 33.6243 36.5686 34.586 36.4093 35.0637 35.7267L 34.2444 35.1533C 34.0881 35.3767 33.7518 35.4374 33.5217 35.2763L 32.9484 36.0957ZM 35.0634 35.7271L 39.6614 29.1711L 38.8427 28.5969L 34.2447 35.1529L 35.0634 35.7271ZM 39.6614 29.1711C 40.134 28.4973 39.9827 27.5594 39.2981 27.0819L 38.726 27.9021C 38.9474 28.0566 39.0041 28.3667 38.8427 28.5969L 39.6614 29.1711ZM 39.2991 27.0826L 36.4941 25.1156L 35.92 25.9344L 38.725 27.9014L 39.2991 27.0826Z"/>
</defs>
</svg>
