<svg width="34" height="44" viewBox="0 0 34 44" version="1.1" xmlns="http://www.w3.org/2000/svg" xmlns:xlink="http://www.w3.org/1999/xlink">
<title>Icon</title>
<desc>Created using Figma</desc>
<g id="Canvas" transform="translate(370 -679)">
<g id="Icon">
<g id="Stroke 350">
<use xlink:href="#path0_stroke" transform="translate(-353 680)" fill="#EEDC22"/>
</g>
<g id="Stroke 352">
<use xlink:href="#path1_stroke" transform="translate(-358 690.628)" fill="#EEDC22"/>
</g>
<g id="Stroke 354">
<use xlink:href="#path2_stroke" transform="translate(-353 704.966)" fill="#EEDC22"/>
</g>
<g id="Stroke 356">
<use xlink:href="#path3_stroke" transform="translate(-369 680)" fill="#EEDC22"/>
</g>
<g id="Stroke 358">
<use xlink:href="#path4_stroke" transform="translate(-365.831 704.966)" fill="#EEDC22"/>
</g>
</g>
</g>
<defs>
<path id="path0_stroke" d="M 0 -0.5C -0.276142 -0.5 -0.5 -0.276142 -0.5 0C -0.5 0.276142 -0.276142 0.5 0 0.5L 0 -0.5ZM 12.4337 24.6625C 12.266 24.8819 12.308 25.1957 12.5275 25.3633C 12.7469 25.531 13.0607 25.489 13.2283 25.2695L 12.4337 24.6625ZM 0 0.5C 8.572 0.5 15.5 7.28415 15.5 15.628L 16.5 15.628C 16.5 6.70985 9.102 -0.5 0 -0.5L 0 0.5ZM 15.5 15.628C 15.5076 19.042 14.3825 22.1208 12.4337 24.6625L 13.2283 25.2695C 15.2595 22.6012 16.4924 19.216 16.5 15.628L 15.5 15.628Z"/>
<path id="path1_stroke" d="M 9.5 5C 9.5 7.48486 7.48486 9.5 5 9.5L 5 10.5C 8.03714 10.5 10.5 8.03714 10.5 5L 9.5 5ZM 5 9.5C 2.51514 9.5 0.5 7.48486 0.5 5L -0.5 5C -0.5 8.03714 1.96286 10.5 5 10.5L 5 9.5ZM 0.5 5C 0.5 2.51514 2.51514 0.5 5 0.5L 5 -0.5C 1.96286 -0.5 -0.5 1.96286 -0.5 5L 0.5 5ZM 5 0.5C 7.48486 0.5 9.5 2.51514 9.5 5L 10.5 5C 10.5 1.96286 8.03714 -0.5 5 -0.5L 5 0.5Z"/>
<path id="path2_stroke" d="M -0.399375 16.7332C -0.56552 16.9537 -0.521401 17.2672 -0.300832 17.4334C -0.0802637 17.5995 0.23323 17.5554 0.399375 17.3348L -0.399375 16.7332ZM 13.2304 0.300832C 13.3965 0.0802637 13.3524 -0.23323 13.1318 -0.399375C 12.9113 -0.56552 12.5978 -0.521401 12.4316 -0.300832L 13.2304 0.300832ZM 0.399375 17.3348L 13.2304 0.300832L 12.4316 -0.300832L -0.399375 16.7332L 0.399375 17.3348Z"/>
<path id="path3_stroke" d="M 16 0.5C 16.2761 0.5 16.5 0.276142 16.5 0C 16.5 -0.276142 16.2761 -0.5 16 -0.5L 16 0.5ZM 2.77167 25.2695C 2.9393 25.489 3.25309 25.531 3.47253 25.3633C 3.69197 25.1957 3.73396 24.8819 3.56633 24.6625L 2.77167 25.2695ZM 16 -0.5C 6.898 -0.5 -0.5 6.70985 -0.5 15.628L 0.5 15.628C 0.5 7.28415 7.428 0.5 16 0.5L 16 -0.5ZM -0.5 15.628C -0.492372 19.216 0.740465 22.6012 2.77167 25.2695L 3.56633 24.6625C 1.61753 22.1208 0.492372 19.042 0.5 15.628L -0.5 15.628Z"/>
<path id="path4_stroke" d="M 12.4316 17.3348C 12.5978 17.5554 12.9113 17.5995 13.1318 17.4334C 13.3524 17.2672 13.3965 16.9537 13.2304 16.7332L 12.4316 17.3348ZM 0.399375 -0.300832C 0.23323 -0.521401 -0.0802637 -0.56552 -0.300832 -0.399375C -0.521401 -0.23323 -0.56552 0.0802637 -0.399375 0.300832L 0.399375 -0.300832ZM 13.2304 16.7332L 0.399375 -0.300832L -0.399375 0.300832L 12.4316 17.3348L 13.2304 16.7332Z"/>
</defs>
</svg>
