<svg width="66" height="61" viewBox="0 0 66 61" version="1.1" xmlns="http://www.w3.org/2000/svg" xmlns:xlink="http://www.w3.org/1999/xlink">
<title>customer feedback</title>
<desc>Created using Figma</desc>
<g id="Canvas" transform="translate(1139 2241)">
<g id="customer feedback">
<g id="Group">
<g id="Shape">
<use xlink:href="#path0_stroke" transform="translate(-1138 -2239.6)" fill="#666666"/>
</g>
<g id="Group">
<g id="Shape">
<use xlink:href="#path1_stroke" transform="translate(-1122.76 -2211.95)" fill="#666666"/>
</g>
<g id="Shape">
<use xlink:href="#path2_stroke" transform="translate(-1115.2 -2230.32)" fill="#666666"/>
</g>
</g>
</g>
</g>
</g>
<defs>
<path id="path0_stroke" d="M 19.8095 45.3742L 1.52381 45.3742L 1.52381 46.3742L 19.8095 46.3742L 19.8095 45.3742ZM 1.52381 45.3742C 1.35375 45.3742 1.10417 45.2362 0.863129 44.8729C 0.632371 44.525 0.5 44.0973 0.5 43.785L -0.5 43.785C -0.5 44.3251 -0.291037 44.942 0.0298233 45.4257C 0.340399 45.8938 0.852729 46.3742 1.52381 46.3742L 1.52381 45.3742ZM 0.5 43.785L 0.5 0.516145L -0.5 0.516145L -0.5 43.785L 0.5 43.785ZM 0.5 0.516145C 0.5 0.348334 0.53755 0.385004 0.47235 0.449832C 0.400953 0.520822 0.336444 0.497324 0.430933 0.500263C 0.530167 0.501846 0.661877 0.528149 0.850039 0.559004C 1.03718 0.589632 1.27789 0.622948 1.52381 0.62422L 1.52381 -0.37578C 1.34916 -0.374508 1.1891 -0.398761 1.01168 -0.427846C 0.835266 -0.456704 0.638595 -0.492259 0.46202 -0.499254C 0.280699 -0.504893 -0.00704843 -0.48369 -0.232731 -0.259295C -0.452217 -0.0410608 -0.5 0.257718 -0.5 0.516145L 0.5 0.516145ZM 1.52381 0.62422L 62.4762 0.62422L 62.4762 -0.37578L 1.52381 -0.37578L 1.52381 0.62422ZM 62.4762 0.62422C 62.7221 0.622948 62.9628 0.589632 63.15 0.559004C 63.3381 0.528149 63.4698 0.501846 63.5691 0.500263C 63.6636 0.497324 63.599 0.520822 63.5276 0.449833C 63.4624 0.385004 63.5 0.348334 63.5 0.516145L 64.5 0.516145C 64.5 0.257718 64.4522 -0.0410612 64.2327 -0.259295C 64.007 -0.48369 63.7193 -0.504893 63.538 -0.499254C 63.3614 -0.492259 63.1647 -0.456704 62.9883 -0.427846C 62.8109 -0.398761 62.6508 -0.374508 62.4762 -0.37578L 62.4762 0.62422ZM 63.5 0.516145L 63.5 43.785L 64.5 43.785L 64.5 0.516145L 63.5 0.516145ZM 63.5 43.785C 63.5 44.0973 63.3676 44.525 63.1369 44.8729C 62.8958 45.2362 62.6463 45.3742 62.4762 45.3742L 62.4762 46.3742C 63.1473 46.3742 63.6596 45.8938 63.9702 45.4257C 64.291 44.942 64.5 44.3251 64.5 43.785L 63.5 43.785ZM 62.4762 45.3742L 41.1429 45.3742L 41.1429 46.3742L 62.4762 46.3742L 62.4762 45.3742ZM 19.8095 46.3742L 41.1429 46.3742L 41.1429 45.3742L 19.8095 45.3742L 19.8095 46.3742ZM 30.8749 59.5186L 40.9702 46.176L 40.1727 45.5726L 30.0775 58.9153L 30.8749 59.5186ZM 30.875 58.9153L 20.7797 45.5726L 19.9823 46.176L 30.0775 59.5186L 30.875 58.9153Z"/>
<path id="path1_stroke" d="M 33.2062 10.0214C 33.2062 7.01485 31.2194 4.37305 28.1778 2.50903C 25.1278 0.639867 20.9459 -0.5 16.3531 -0.5L 16.3531 0.5C 20.7921 0.5 24.7867 1.60368 27.6553 3.36165C 30.5322 5.12476 32.2062 7.49367 32.2062 10.0214L 33.2062 10.0214ZM 16.3531 -0.5C 11.7602 -0.5 7.57836 0.639867 4.52835 2.50903C 1.48673 4.37305 -0.5 7.01485 -0.5 10.0214L 0.5 10.0214C 0.5 7.49367 2.17391 5.12476 5.05087 3.36165C 7.91945 1.60368 11.9141 0.5 16.3531 0.5L 16.3531 -0.5Z"/>
<path id="path2_stroke" d="M 8.99419 18.8726C 14.2475 18.8726 18.4884 14.5258 18.4884 9.18631L 17.4884 9.18631C 17.4884 13.9935 13.6754 17.8726 8.99419 17.8726L 8.99419 18.8726ZM 18.4884 9.18631C 18.4884 3.84683 14.2475 -0.5 8.99419 -0.5L 8.99419 0.5C 13.6754 0.5 17.4884 4.37909 17.4884 9.18631L 18.4884 9.18631ZM 8.99419 -0.5C 3.74089 -0.5 -0.5 3.84683 -0.5 9.18631L 0.5 9.18631C 0.5 4.37909 4.313 0.5 8.99419 0.5L 8.99419 -0.5ZM -0.5 9.18631C -0.5 14.5258 3.74089 18.8726 8.99419 18.8726L 8.99419 17.8726C 4.313 17.8726 0.5 13.9935 0.5 9.18631L -0.5 9.18631Z"/>
</defs>
</svg>
