<svg width="65" height="60" viewBox="0 0 65 60" version="1.1" xmlns="http://www.w3.org/2000/svg" xmlns:xlink="http://www.w3.org/1999/xlink">
<title>employee_feedback</title>
<desc>Created using Figma</desc>
<g id="Canvas" transform="translate(761 2260)">
<g id="employee_feedback">
<g id="Combined Shape">
<mask id="mask0_outline_ins">
<use xlink:href="#path0_fill" fill="white" transform="translate(-761 -2260)"/>
</mask>
<g mask="url(#mask0_outline_ins)">
<use xlink:href="#path1_stroke_2x" transform="translate(-761 -2260)" fill="#666666"/>
</g>
</g>
</g>
</g>
<defs>
<path id="path0_fill" fill-rule="evenodd" d="M 32.5 0C 27.8056 0 24 3.80566 24 8.5C 24 13.0266 27.5383 16.7268 32 16.9856L 32 29L 7 29L 7 30L 7 45L 7.5 45C 3.35785 45 0 48.3579 0 52.5C 0 56.6421 3.35785 60 7.5 60C 11.6422 60 15 56.6421 15 52.5C 15 48.3579 11.6422 45 7.5 45L 8 45L 8 30L 32 30L 32 45L 32.5 45C 28.3578 45 25 48.3579 25 52.5C 25 56.6421 28.3578 60 32.5 60C 36.6422 60 40 56.6421 40 52.5C 40 48.3579 36.6422 45 32.5 45L 33 45L 33 30L 57 30L 57 45L 57.5 45C 53.3578 45 50 48.3579 50 52.5C 50 56.6421 53.3578 60 57.5 60C 61.6422 60 65 56.6421 65 52.5C 65 48.3579 61.6422 45 57.5 45L 58 45L 58 30L 58 29L 33 29L 33 16.9856C 37.4617 16.7268 41 13.0266 41 8.5C 41 3.80566 37.1944 0 32.5 0Z"/>
<path id="path1_stroke_2x" d="M 32 16.9856L 33 16.9856L 33 16.0419L 32.0579 15.9873L 32 16.9856ZM 32 29L 32 30L 33 30L 33 29L 32 29ZM 7 29L 7 28L 6 28L 6 29L 7 29ZM 7 45L 6 45L 6 46L 7 46L 7 45ZM 8 45L 8 46L 9 46L 9 45L 8 45ZM 8 30L 8 29L 7 29L 7 30L 8 30ZM 32 30L 33 30L 33 29L 32 29L 32 30ZM 32 45L 31 45L 31 46L 32 46L 32 45ZM 33 45L 33 46L 34 46L 34 45L 33 45ZM 33 30L 33 29L 32 29L 32 30L 33 30ZM 57 30L 58 30L 58 29L 57 29L 57 30ZM 57 45L 56 45L 56 46L 57 46L 57 45ZM 58 45L 58 46L 59 46L 59 45L 58 45ZM 58 29L 59 29L 59 28L 58 28L 58 29ZM 33 29L 32 29L 32 30L 33 30L 33 29ZM 33 16.9856L 32.9421 15.9873L 32 16.0419L 32 16.9856L 33 16.9856ZM 25 8.5C 25 4.35794 28.3579 1 32.5 1L 32.5 -1C 27.2533 -1 23 3.25338 23 8.5L 25 8.5ZM 32.0579 15.9873C 28.1221 15.759 25 12.4937 25 8.5L 23 8.5C 23 13.5595 26.9546 17.6946 31.9421 17.9839L 32.0579 15.9873ZM 33 29L 33 16.9856L 31 16.9856L 31 29L 33 29ZM 7 30L 32 30L 32 28L 7 28L 7 30ZM 8 30L 8 29L 6 29L 6 30L 8 30ZM 6 30L 6 45L 8 45L 8 30L 6 30ZM 7 46L 7.5 46L 7.5 44L 7 44L 7 46ZM 1 52.5C 1 48.9102 3.91014 46 7.5 46L 7.5 44C 2.80556 44 -1 47.8056 -1 52.5L 1 52.5ZM 7.5 59C 3.91014 59 1 56.0898 1 52.5L -1 52.5C -1 57.1944 2.80556 61 7.5 61L 7.5 59ZM 14 52.5C 14 56.0898 11.0899 59 7.5 59L 7.5 61C 12.1944 61 16 57.1944 16 52.5L 14 52.5ZM 7.5 46C 11.0899 46 14 48.9102 14 52.5L 16 52.5C 16 47.8056 12.1944 44 7.5 44L 7.5 46ZM 7.5 46L 8 46L 8 44L 7.5 44L 7.5 46ZM 9 45L 9 30L 7 30L 7 45L 9 45ZM 32 29L 8 29L 8 31L 32 31L 32 29ZM 33 45L 33 30L 31 30L 31 45L 33 45ZM 32.5 44L 32 44L 32 46L 32.5 46L 32.5 44ZM 26 52.5C 26 48.9102 28.9101 46 32.5 46L 32.5 44C 27.8056 44 24 47.8056 24 52.5L 26 52.5ZM 32.5 59C 28.9101 59 26 56.0898 26 52.5L 24 52.5C 24 57.1944 27.8056 61 32.5 61L 32.5 59ZM 39 52.5C 39 56.0898 36.0899 59 32.5 59L 32.5 61C 37.1944 61 41 57.1944 41 52.5L 39 52.5ZM 32.5 46C 36.0899 46 39 48.9102 39 52.5L 41 52.5C 41 47.8056 37.1944 44 32.5 44L 32.5 46ZM 33 44L 32.5 44L 32.5 46L 33 46L 33 44ZM 32 30L 32 45L 34 45L 34 30L 32 30ZM 57 29L 33 29L 33 31L 57 31L 57 29ZM 58 45L 58 30L 56 30L 56 45L 58 45ZM 57.5 44L 57 44L 57 46L 57.5 46L 57.5 44ZM 51 52.5C 51 48.9102 53.9101 46 57.5 46L 57.5 44C 52.8056 44 49 47.8056 49 52.5L 51 52.5ZM 57.5 59C 53.9101 59 51 56.0898 51 52.5L 49 52.5C 49 57.1944 52.8056 61 57.5 61L 57.5 59ZM 64 52.5C 64 56.0898 61.0899 59 57.5 59L 57.5 61C 62.1944 61 66 57.1944 66 52.5L 64 52.5ZM 57.5 46C 61.0899 46 64 48.9102 64 52.5L 66 52.5C 66 47.8056 62.1944 44 57.5 44L 57.5 46ZM 58 44L 57.5 44L 57.5 46L 58 46L 58 44ZM 57 30L 57 45L 59 45L 59 30L 57 30ZM 57 29L 57 30L 59 30L 59 29L 57 29ZM 33 30L 58 30L 58 28L 33 28L 33 30ZM 32 16.9856L 32 29L 34 29L 34 16.9856L 32 16.9856ZM 40 8.5C 40 12.4937 36.8779 15.759 32.9421 15.9873L 33.0579 17.9839C 38.0454 17.6946 42 13.5595 42 8.5L 40 8.5ZM 32.5 1C 36.6421 1 40 4.35794 40 8.5L 42 8.5C 42 3.25338 37.7467 -1 32.5 -1L 32.5 1Z"/>
</defs>
</svg>
