<svg width="62" height="61" viewBox="0 0 62 61" version="1.1" xmlns="http://www.w3.org/2000/svg" xmlns:xlink="http://www.w3.org/1999/xlink">
<title>event</title>
<desc>Created using Figma</desc>
<g id="Canvas" transform="translate(384 2240)">
<g id="event">
<g id="Group">
<g id="Shape">
<use xlink:href="#path0_stroke" transform="translate(-383 -2240)" fill="#666666"/>
</g>
<g id="Shape">
<use xlink:href="#path1_stroke" transform="translate(-365.15 -2207.78)" fill="#666666"/>
</g>
</g>
</g>
</g>
<defs>
<path id="path0_stroke" d="M 59.5 58.4209C 59.5 59.0164 59.0165 59.4999 58.4211 59.4999L 58.4211 60.4999C 59.5688 60.4999 60.5 59.5687 60.5 58.4209L 59.5 58.4209ZM 58.4211 59.4999L 1.57895 59.4999L 1.57895 60.4999L 58.4211 60.4999L 58.4211 59.4999ZM 1.57895 59.4999C 0.983512 59.4999 0.5 59.0164 0.5 58.4209L -0.5 58.4209C -0.5 59.5687 0.431225 60.4999 1.57895 60.4999L 1.57895 59.4999ZM 0.5 58.4209L 0.5 7.89462L -0.5 7.89462L -0.5 58.4209L 0.5 58.4209ZM 0.5 7.89462C 0.5 7.29918 0.983511 6.81567 1.57895 6.81567L 1.57895 5.81567C 0.431226 5.81567 -0.5 6.7469 -0.5 7.89462L 0.5 7.89462ZM 1.57895 6.81567L 58.4211 6.81567L 58.4211 5.81567L 1.57895 5.81567L 1.57895 6.81567ZM 58.4211 6.81567C 59.0165 6.81567 59.5 7.29919 59.5 7.89462L 60.5 7.89462C 60.5 6.7469 59.5688 5.81567 58.4211 5.81567L 58.4211 6.81567ZM 59.5 7.89462L 59.5 58.4209L 60.5 58.4209L 60.5 7.89462L 59.5 7.89462ZM 0 22.6052L 60 22.6052L 60 21.6052L 0 21.6052L 0 22.6052ZM 60 21.6052L 0 21.6052L 0 22.6052L 60 22.6052L 60 21.6052ZM 13.7105 0L 13.7105 12.6316L 14.7105 12.6316L 14.7105 0L 13.7105 0ZM 14.7105 12.6316L 14.7105 0L 13.7105 0L 13.7105 12.6316L 14.7105 12.6316ZM 46.2895 12.6316L 46.2895 0L 45.2895 0L 45.2895 12.6316L 46.2895 12.6316ZM 45.2895 0L 45.2895 12.6316L 46.2895 12.6316L 46.2895 0L 45.2895 0Z"/>
<path id="path1_stroke" d="M 8.51368 15.7895L 8.15566 16.1385L 8.49888 16.4906L 8.85666 16.1533L 8.51368 15.7895ZM -0.358024 7.40534L 8.15566 16.1385L 8.87171 15.4404L 0.358024 6.70729L -0.358024 7.40534ZM 8.85666 16.1533L 25.6061 0.363826L 24.9202 -0.363826L 8.17071 15.4256L 8.85666 16.1533Z"/>
</defs>
</svg>
