<svg width="69" height="60" viewBox="0 0 69 60" version="1.1" xmlns="http://www.w3.org/2000/svg" xmlns:xlink="http://www.w3.org/1999/xlink">
<title>idea</title>
<desc>Created using Figma</desc>
<g id="Canvas" transform="translate(1140 1914)">
<g id="idea">
<g id="Group">
<g id="Shape">
<use xlink:href="#path0_stroke" transform="translate(-1139 -1913)" fill="#666666"/>
</g>
<g id="Shape">
<use xlink:href="#path1_stroke" transform="translate(-1139 -1912.2)" fill="#666666"/>
</g>
</g>
</g>
</g>
<defs>
<path id="path0_stroke" d="M 9.89048 0.770189L 10.3154 1.0337L 10.3905 0.912637L 10.3905 0.770189L 9.89048 0.770189ZM 58.7048 0.770189L 58.2048 0.770189L 58.2048 0.891101L 58.26 0.998652L 58.7048 0.770189ZM 0.424927 16.9828L 10.3154 1.0337L 9.46555 0.506681L -0.424927 16.4558L 0.424927 16.9828ZM 10.3905 0.770189C 10.3829 0.695489 10.3713 0.72826 10.4074 0.696041C 10.4356 0.651617 10.4489 0.64809 10.5541 0.61201C 10.7666 0.533612 11.1066 0.5 11.5655 0.5L 11.5655 -0.5C 11.0991 -0.5 10.6016 -0.471422 10.2079 -0.326179C 10.01 -0.250438 9.77805 -0.101781 9.63677 0.0587502C 9.5034 0.231487 9.39806 0.521984 9.39048 0.770189L 10.3905 0.770189ZM 11.5655 0.5L 57.0298 0.5L 57.0298 -0.5L 11.5655 -0.5L 11.5655 0.5ZM 57.0298 0.5C 57.4887 0.5 57.8287 0.533612 58.0412 0.61201C 58.1463 0.64809 58.1596 0.651617 58.1878 0.696041C 58.224 0.72826 58.2123 0.695489 58.2048 0.770189L 59.2048 0.770189C 59.1972 0.521984 59.0918 0.231487 58.9585 0.0587504C 58.8172 -0.101781 58.5852 -0.250438 58.3873 -0.326178C 57.9936 -0.471422 57.4961 -0.5 57.0298 -0.5L 57.0298 0.5ZM 58.26 0.998652L 66.5552 17.1471L 67.4448 16.6902L 59.1495 0.541726L 58.26 0.998652Z"/>
<path id="path1_stroke" d="M 0.34136 17.2025L -0.0540849 17.5085L -0.0511849 17.5122L 0.34136 17.2025ZM 66.6586 17.2025L 67.0526 17.5104L 67.054 17.5085L 66.6586 17.2025ZM 35.6823 56.8489L 35.2883 56.5411L 35.2868 56.5429L 35.6823 56.8489ZM 31.7102 56.1565L 0.733905 16.8928L -0.0511849 17.5122L 30.9251 56.7759L 31.7102 56.1565ZM 0.736788 16.8965C 0.536546 16.6378 0.49726 16.4638 0.500151 16.3679C 0.502598 16.2868 0.536614 16.1947 0.663141 16.0883C 0.950583 15.8466 1.59088 15.6487 2.52365 15.6487L 2.52365 14.6487C 1.5166 14.6487 0.580804 14.851 0.0195788 15.3229C -0.278227 15.5733 -0.486687 15.9163 -0.499395 16.3378C -0.511659 16.7445 -0.338778 17.1406 -0.0540676 17.5085L 0.736788 16.8965ZM 2.52365 15.6487L 64.4763 15.6487L 64.4763 14.6487L 2.52365 14.6487L 2.52365 15.6487ZM 64.4763 15.6487C 65.4091 15.6487 66.0494 15.8466 66.3368 16.0883C 66.4633 16.1947 66.4974 16.2868 66.4998 16.3679C 66.5027 16.4638 66.4634 16.6378 66.2632 16.8965L 67.054 17.5085C 67.3387 17.1406 67.5116 16.7445 67.4994 16.3378C 67.4866 15.9163 67.2782 15.5733 66.9804 15.3229C 66.4192 14.851 65.4834 14.6487 64.4763 14.6487L 64.4763 15.6487ZM 66.2646 16.8947L 35.2883 56.5411L 36.0763 57.1568L 67.0526 17.5104L 66.2646 16.8947ZM 35.2868 56.5429C 34.948 56.9808 34.3061 57.1853 33.556 57.1007C 32.8099 57.0166 32.0977 56.6572 31.7131 56.1602L 30.9223 56.7722C 31.5076 57.5286 32.4927 57.9872 33.444 58.0944C 34.3912 58.2012 35.4467 57.9704 36.0777 57.1549L 35.2868 56.5429ZM 36.1684 56.5806L 49.4423 0.11442L 48.4689 -0.11442L 35.1949 56.3518L 36.1684 56.5806ZM 48.4689 -0.11442L 35.1949 56.3518L 36.1684 56.5806L 49.4423 0.11442L 48.4689 -0.11442ZM 19.186 0.108721L 31.8203 57.2941L 32.7967 57.0783L 20.1624 -0.107012L 19.186 0.108721ZM 32.7967 57.0783L 20.1624 -0.107012L 19.186 0.108721L 31.8203 57.2941L 32.7967 57.0783Z"/>
</defs>
</svg>
