<svg width="59" height="60" viewBox="0 0 59 60" version="1.1" xmlns="http://www.w3.org/2000/svg" xmlns:xlink="http://www.w3.org/1999/xlink">
<title>promo-tool</title>
<desc>Created using Figma</desc>
<g id="Canvas" transform="translate(383 1914)">
<g id="promo-tool">
<g id="Icon Copy 9">
<g id="Stroke 1">
<use xlink:href="#path0_stroke" transform="translate(-341.32 -1872.95)" fill="#666666"/>
</g>
</g>
<g id="Icon">
<g id="Stroke 13">
<use xlink:href="#path1_stroke" transform="translate(-382 -1882.62)" fill="#666666"/>
</g>
<g id="Stroke 15">
<use xlink:href="#path2_stroke" transform="translate(-369.454 -1912.99)" fill="#666666"/>
</g>
<g id="Stroke 17">
<use xlink:href="#path3_stroke" transform="translate(-382 -1866.05)" fill="#666666"/>
</g>
</g>
</g>
</g>
<defs>
<path id="path0_stroke" d="M 1.03366 6.25309C 0.856652 6.04114 0.54134 6.01281 0.329388 6.18981C 0.117435 6.36682 0.0891042 6.68213 0.266109 6.89408L 1.03366 6.25309ZM 7.75471 15.0812L 8.13854 14.7608L 8.13849 14.7607L 7.75471 15.0812ZM 8.19834 15.0812L 8.58208 15.4017L 8.58213 15.4017L 8.19834 15.0812ZM 15.3028 6.57359L 15.6973 6.88077C 15.8649 6.66551 15.829 6.35564 15.6167 6.18438C 15.4043 6.01312 15.0939 6.0437 14.919 6.2531L 15.3028 6.57359ZM 15.0195 6.93736L 14.625 6.63018C 14.4561 6.84716 14.494 7.15983 14.71 7.33006C 14.926 7.50028 15.2389 7.46415 15.4104 7.24918L 15.0195 6.93736ZM 15.8741 5.08729L 16.3646 5.18397L 16.3647 5.18381L 15.8741 5.08729ZM 8.0627 3.05054L 8.05316 3.55045C 8.2816 3.55481 8.48394 3.40375 8.5447 3.18349L 8.0627 3.05054ZM 7.89514 3.04734L 7.41316 3.18037C 7.47206 3.39376 7.66427 3.54302 7.8856 3.54725L 7.89514 3.04734ZM 0.0833797 5.0837L -0.407217 5.18021L -0.407185 5.18037L 0.0833797 5.0837ZM 0.547607 7.24616C 0.719919 7.46195 1.03453 7.49719 1.25032 7.32488C 1.4661 7.15257 1.50135 6.83795 1.32904 6.62217L 0.547607 7.24616ZM 0.266109 6.89408L 7.37094 15.4017L 8.13849 14.7607L 1.03366 6.25309L 0.266109 6.89408ZM 7.37088 15.4016C 7.69537 15.7903 8.26346 15.7832 8.58208 15.4017L 7.81461 14.7606C 7.84316 14.7265 7.89981 14.6907 7.97557 14.6905C 8.05217 14.6902 8.10989 14.7264 8.13854 14.7608L 7.37088 15.4016ZM 8.58213 15.4017L 15.6866 6.89407L 14.919 6.2531L 7.81456 14.7607L 8.58213 15.4017ZM 14.9083 6.2664L 14.625 6.63018L 15.414 7.24455L 15.6973 6.88077L 14.9083 6.2664ZM 15.4104 7.24918C 15.8617 6.67809 16.212 5.93836 16.3646 5.18397L 15.3835 4.99062C 15.2624 5.62498 15.0135 6.14848 14.6287 6.62555L 15.4104 7.24918ZM 16.3647 5.18381C 16.4233 4.88297 16.4572 4.54684 16.4578 4.22702L 15.4578 4.22702C 15.4585 4.49644 15.4342 4.73596 15.3835 4.99078L 16.3647 5.18381ZM 16.4578 4.22702C 16.4578 1.64108 14.4534 -0.496802 11.9309 -0.496802L 11.9309 0.503198C 13.8566 0.503198 15.4578 2.14781 15.4578 4.22702L 16.4578 4.22702ZM 11.9309 -0.496802C 9.85131 -0.496802 8.12058 0.960396 7.5807 2.91758L 8.5447 3.18349C 8.97586 1.62043 10.3409 0.503198 11.9309 0.503198L 11.9309 -0.496802ZM 8.07224 2.55063L 7.90468 2.54743L 7.8856 3.54725L 8.05316 3.55045L 8.07224 2.55063ZM 8.37712 2.91431C 7.83682 0.956756 6.1061 -0.5 4.02656 -0.5L 4.02656 0.5C 5.61653 0.5 6.98163 1.61687 7.41316 3.18037L 8.37712 2.91431ZM 4.02656 -0.5C 1.50445 -0.5 -0.5 1.63748 -0.5 4.22382L 0.5 4.22382C 0.5 2.14421 2.10122 0.5 4.02656 0.5L 4.02656 -0.5ZM -0.5 4.22382C -0.49938 4.54333 -0.465889 4.87906 -0.407217 5.18021L 0.573977 4.98718C 0.523337 4.73267 0.49938 4.49355 0.5 4.22382L -0.5 4.22382ZM -0.407185 5.18037C -0.254615 5.9347 0.0957378 6.67494 0.547607 7.24616L 1.32904 6.62217C 0.943916 6.14523 0.695052 5.62144 0.573945 4.98702L -0.407185 5.18037Z"/>
<path id="path1_stroke" d="M 50.8882 9.36969C 51.0651 9.58167 51.3804 9.61005 51.5924 9.43308C 51.8044 9.2561 51.8328 8.9408 51.6558 8.72882L 50.8882 9.36969ZM 41.6828 2.59556L 41.8647 2.12981L 41.6828 2.59556ZM -0.5 16.5714C -0.5 16.8476 -0.276142 17.0714 0 17.0714C 0.276142 17.0714 0.5 16.8476 0.5 16.5714L -0.5 16.5714ZM 51.6558 8.72882C 49.4041 6.03964 45.9766 3.73846 41.8647 2.12981L 41.501 3.06132C 45.5135 4.62476 48.7351 6.78284 50.8882 9.36969L 51.6558 8.72882ZM 41.8647 2.12981C 37.6125 0.471882 32.521 -0.497788 27.1098 -0.5L 27.1098 0.5C 32.427 0.497788 37.336 1.43288 41.501 3.06132L 41.8647 2.12981ZM 27.1098 -0.5C 19.5467 -0.5 12.6758 1.37295 7.67933 4.42727C 2.69141 7.47635 -0.5 11.7556 -0.5 16.5714L 0.5 16.5714C 0.5 12.2357 3.37711 8.22922 8.20089 5.28048C 13.0161 2.33698 19.7001 0.5 27.1098 0.5L 27.1098 -0.5Z"/>
<path id="path2_stroke" d="M 14.9197 30.881C 23.444 30.881 30.3394 23.8474 30.3394 15.1905L 29.3394 15.1905C 29.3394 23.3121 22.8748 29.881 14.9197 29.881L 14.9197 30.881ZM 30.3394 15.1905C 30.3394 6.53356 23.444 -0.5 14.9197 -0.5L 14.9197 0.5C 22.8748 0.5 29.3394 7.06882 29.3394 15.1905L 30.3394 15.1905ZM 14.9197 -0.5C 6.39537 -0.5 -0.5 6.53356 -0.5 15.1905L 0.5 15.1905C 0.5 7.06882 6.96454 0.5 14.9197 0.5L 14.9197 -0.5ZM -0.5 15.1905C -0.5 23.8474 6.39537 30.881 14.9197 30.881L 14.9197 29.881C 6.96454 29.881 0.5 23.3121 0.5 15.1905L -0.5 15.1905Z"/>
<path id="path3_stroke" d="M 54.7195 2.7619C 54.7195 2.48576 54.4957 2.2619 54.2195 2.2619C 53.9434 2.2619 53.7195 2.48576 53.7195 2.7619L 54.7195 2.7619ZM 0.5 0C 0.5 -0.276142 0.276142 -0.5 0 -0.5C -0.276142 -0.5 -0.5 -0.276142 -0.5 0L 0.5 0ZM 53.7195 2.7619L 53.7195 9.06595L 54.7195 9.06595L 54.7195 2.7619L 53.7195 2.7619ZM 53.7195 9.06595C 53.7207 9.43678 53.6697 9.83427 53.5254 10.1665C 53.387 10.4958 53.2508 10.5476 53.1636 10.5476L 53.1636 11.5476C 53.8626 11.5476 54.2543 11.0132 54.4473 10.554C 54.6344 10.0977 54.7184 9.50437 54.7195 9.06595L 53.7195 9.06595ZM 53.1636 10.5476L 1.73367 10.5476L 1.73367 11.5476L 53.1636 11.5476L 53.1636 10.5476ZM 1.73367 10.5476C 1.57331 10.5476 1.26715 10.3941 0.958597 10.0322C 0.65942 9.68133 0.5 9.29792 0.5 9.06595L -0.5 9.06595C -0.5 9.63356 -0.177544 10.241 0.197634 10.681C 0.563436 11.1101 1.12411 11.5476 1.73367 11.5476L 1.73367 10.5476ZM 0.5 9.06595L 0.5 0L -0.5 0L -0.5 9.06595L 0.5 9.06595Z"/>
</defs>
</svg>
